<svg xmlns:xlink="http://www.w3.org/1999/xlink" xmlns="http://www.w3.org/2000/svg" viewBox="1023.7120359955006 704.1600000000001 382.27221597300337 185.76" version="1.1" style="max-height: 500px" width="382.27221597300337" height="185.76">
<path fill="#ed5507" d="M12483.7 2904.71H12182C12148.7 2904.71 12117.8 2922.36 12101 2951.1L12078.6 2989.12C12053.3 3032.22 12007.1 3058.7 11957.1 3058.7H11797.2C11784.2 3058.7 11773.7 3069.22 11773.7 3082.19V3193.89C11773.7 3206.87 11784.2 3217.38 11797.2 3217.38H11893.3C11926.6 3217.38 11957.4 3199.73 11974.3 3171L11996.6 3132.98C12021.9 3089.87 12068.2 3063.4 12118.2 3063.4H12483.7C12496.7 3063.4 12507.2 3052.88 12507.2 3039.91V2928.2C12507.2 2915.23 12496.7 2904.71 12483.7 2904.71M12507.7 3217.91H12507.2 12028.7C11978.4 3217.91 11931.9 3244.77 11906.7 3288.38L11884.2 3327.42C11867.4 3356.48 11836.4 3374.38 11802.8 3374.4L11773.7 3374.5H11773.2 11640.1C11627.1 3374.5 11616.6 3363.99 11616.6 3351.02V2927.68C11616.6 2914.7 11627.1 2904.19 11640.1 2904.19H11773.2 11773.7 12073.6C12107.2 2904.19 12138.2 2886.24 12155 2857.11L12177.4 2818.2C12202.6 2774.52 12249.1 2747.59 12299.5 2747.59H12507.2 12507.7 12523.4C12601.2 2747.59 12664.3 2810.69 12664.3 2888.53V3061.31C12664.3 3147.8 12594.2 3217.91 12507.7 3217.91" transform="matrix(.1,0,0,-.1,0,1080)"/>
<path fill="#fff" d="M11508.9 2277.41C11443.5 2277.41 11395.2 2290.34 11363.9 2316.25 11332.7 2342.16 11317.1 2380.55 11317.1 2431.48V2435.02C11317.1 2538.91 11381 2590.86 11508.9 2590.86H11817.9V2510.95H11506.2C11473.1 2510.95 11448.7 2504.73 11433 2492.3 11417.3 2479.86 11409.4 2460.91 11409.4 2435.46V2431.91C11409.4 2407.05 11417.3 2388.41 11433 2375.98 11448.7 2363.54 11473.1 2357.32 11506.2 2357.32H11726V2443.91H11817.9V2277.41" transform="matrix(.1,0,0,-.1,0,1080)"/>
<path fill="#fff" d="M11968.6 2357.32H12204.8C12239.2 2357.32 12263.9 2363.46 12279 2375.75 12294.1 2388.02 12301.6 2406.75 12301.6 2431.91V2435.46C12301.6 2461.21 12294.1 2480.23 12279 2492.52 12263.9 2504.79 12239.2 2510.94 12204.8 2510.94H11968.6ZM11876.3 2277.4V2590.86H12201.7C12329.6 2590.86 12393.5 2538.91 12393.5 2435.02V2431.47C12393.5 2380.55 12377.9 2342.15 12346.7 2316.25 12315.5 2290.35 12267.1 2277.4 12201.7 2277.4" transform="matrix(.1,0,0,-.1,0,1080)"/>
<path fill="#fff" d="M12538.9 2357.32H12775.1C12809.4 2357.32 12834.1 2363.46 12849.2 2375.75 12864.3 2388.02 12871.9 2406.75 12871.9 2431.91V2435.46C12871.9 2461.21 12864.3 2480.23 12849.2 2492.52 12834.1 2504.79 12809.4 2510.94 12775.1 2510.94H12538.9ZM12446.5 2277.4V2590.86H12772C12899.9 2590.86 12963.8 2538.91 12963.8 2435.02V2431.47C12963.8 2380.55 12948.2 2342.15 12917 2316.25 12885.7 2290.35 12837.4 2277.4 12772 2277.4" transform="matrix(.1,0,0,-.1,0,1080)"/>
</svg>