<svg xmlns:xlink="http://www.w3.org/1999/xlink" xmlns="http://www.w3.org/2000/svg" viewBox="1023.7120359955006 483.84000000000003 386.5916760404949 181.44" version="1.1" style="max-height: 500px" width="386.5916760404949" height="181.44">
<path d="M12180.3 4927.65H12496.159V5000.15H12180.3ZM12496.2 5072.66C12536.1 5072.66 12568.7 5040.03 12568.7 5000.15V4927.65C12568.7 4887.77 12536.1 4855.14 12496.2 4855.14H12180.3C12140.4 4855.14 12107.8 4887.77 12107.8 4927.65V5000.15C12107.8 5040.03 12140.4 5072.66 12180.3 5072.66H12423.7V5145.16H12144.1V5217.66H12423.7C12463.6 5217.66 12496.2 5185.04 12496.2 5145.16" transform="matrix(.1,0,0,-.1,0,1080)"/>
<path d="M13177.7 5072.66H13493.56V5145.16H13177.7ZM13493.5 5217.66C13533.4 5217.66 13566 5185.04 13566 5145.16V5072.66C13566 5032.78 13533.4 5000.15 13493.5 5000.15H13177.7V4927.65H13493.5V4855.14H13177.7C13137.8 4855.14 13105.1 4887.77 13105.1 4927.65V5145.16C13105.1 5185.04 13137.8 5217.66 13177.7 5217.66" transform="matrix(.1,0,0,-.1,0,1080)"/>
<path d="M12679 5072.66H12994.859V5145.16H12679ZM12994.9 5217.66C13034.7 5217.66 13067.4 5185.04 13067.4 5145.16V5072.66C13067.4 5032.78 13034.7 5000.15 12994.9 5000.15H12679V4927.65H12994.9V4855.14H12679C12639.1 4855.14 12606.5 4887.77 12606.5 4927.65V5145.16C12606.5 5185.04 12639.1 5217.66 12679 5217.66" transform="matrix(.1,0,0,-.1,0,1080)"/>
<path fill="#ed5507" d="M11717.7 4855.6H11368.8C11330.2 4855.6 11294.6 4876.01 11275.1 4909.25L11249.2 4953.22C11220 5003.07 11166.5 5033.69 11108.7 5033.69H10923.8C10908.8 5033.69 10896.6 5045.85 10896.6 5060.86V5190.05C10896.6 5205.05 10908.8 5217.21 10923.8 5217.21H11034.9C11073.4 5217.21 11109.1 5196.8 11128.6 5163.57L11154.4 5119.59C11183.7 5069.74 11237.2 5039.12 11295 5039.12H11717.7C11732.7 5039.12 11744.9 5026.96 11744.9 5011.96V4882.77C11744.9 4867.76 11732.7 4855.6 11717.7 4855.6M11745.5 5217.82H11744.9 11191.5C11133.3 5217.82 11079.5 5248.89 11050.4 5299.32L11024.3 5344.47C11004.9 5378.08 10969.1 5398.79 10930.3 5398.81L10896.6 5398.93H10896 10742C10727 5398.93 10714.9 5386.77 10714.9 5371.76V4882.16C10714.9 4867.16 10727 4855 10742 4855H10896 10896.6 11243.4C11282.3 4855 11318.2 4834.24 11337.6 4800.55L11363.5 4755.55C11392.6 4705.03 11446.4 4673.89 11504.7 4673.89H11744.9 11745.5 11763.6C11853.6 4673.89 11926.6 4746.86 11926.6 4836.89V5036.71C11926.6 5136.73 11845.5 5217.82 11745.5 5217.82" transform="matrix(.1,0,0,-.1,0,1080)"/>
</svg>