<svg xmlns:xlink="http://www.w3.org/1999/xlink" xmlns="http://www.w3.org/2000/svg" viewBox="1023.7120359955006 486 384.4319460067492 183.60000000000002" version="1.1" style="max-height: 500px" width="384.4319460067492" height="183.60000000000002">
<path fill="#ed5507" d="M11582 4880.07H11280.3C11246.9 4880.07 11216.1 4897.72 11199.3 4926.46L11176.9 4964.48C11151.6 5007.58 11105.4 5034.06 11055.4 5034.06H10895.5C10882.5 5034.06 10872 5044.58 10872 5057.55V5169.25C10872 5182.23 10882.5 5192.74 10895.5 5192.74H10991.6C11024.9 5192.74 11055.7 5175.09 11072.6 5146.36L11094.9 5108.34C11120.2 5065.23 11166.5 5038.76 11216.5 5038.76H11582C11594.9 5038.76 11605.5 5028.24 11605.5 5015.27V4903.56C11605.5 4890.59 11594.9 4880.07 11582 4880.07M11606 5193.27H11605.5 11127C11076.7 5193.27 11030.1 5220.13 11005 5263.74L10982.4 5302.78C10965.7 5331.84 10934.7 5349.74 10901.1 5349.76L10872 5349.86H10871.5 10738.4C10725.4 5349.86 10714.9 5339.35 10714.9 5326.37V4903.04C10714.9 4890.06 10725.4 4879.55 10738.4 4879.55H10871.5 10872 11171.9C11205.5 4879.55 11236.5 4861.6 11253.3 4832.47L11275.7 4793.56C11300.8 4749.88 11347.4 4722.95 11397.8 4722.95H11605.5 11606 11621.6C11699.5 4722.95 11762.6 4786.05 11762.6 4863.89V5036.67C11762.6 5123.16 11692.5 5193.27 11606 5193.27" transform="matrix(.1,0,0,-.1,0,1080)"/>
<path fill="#fff" d="M12111.1 4879.68C12045.7 4879.68 11997.4 4892.61 11966.2 4918.52 11934.9 4944.43 11919.3 4982.82 11919.3 5033.73V5037.3C11919.3 5141.18 11983.2 5193.14 12111.1 5193.14H12420.1V5113.21H12108.5C12075.3 5113.21 12050.9 5107 12035.2 5094.57 12019.5 5082.14 12011.7 5063.18 12011.7 5037.73V5034.18C12011.7 5009.32 12019.5 4990.68 12035.2 4978.25 12050.9 4965.8 12075.3 4959.59 12108.5 4959.59H12328.2V5046.18H12420.1V4879.68" transform="matrix(.1,0,0,-.1,0,1080)"/>
<path fill="#fff" d="M12570.8 4959.59H12807C12841.4 4959.59 12866.1 4965.73 12881.2 4978.02 12896.3 4990.29 12903.8 5009.02 12903.8 5034.18V5037.73C12903.8 5063.48 12896.3 5082.5 12881.2 5094.79 12866.1 5107.07 12841.4 5113.21 12807 5113.21H12570.8ZM12478.5 4879.68V5193.13H12803.9C12931.8 5193.13 12995.8 5141.18 12995.8 5037.29V5033.75C12995.8 4982.82 12980.1 4944.43 12948.9 4918.52 12917.7 4892.63 12869.4 4879.68 12803.9 4879.68" transform="matrix(.1,0,0,-.1,0,1080)"/>
<path fill="#fff" d="M13141.1 4959.59H13377.3C13411.7 4959.59 13436.4 4965.73 13451.5 4978.02 13466.6 4990.29 13474.1 5009.02 13474.1 5034.18V5037.73C13474.1 5063.48 13466.6 5082.5 13451.5 5094.79 13436.4 5107.07 13411.7 5113.21 13377.3 5113.21H13141.1ZM13048.8 4879.68V5193.13H13374.2C13502.1 5193.13 13566 5141.18 13566 5037.29V5033.75C13566 4982.82 13550.4 4944.43 13519.2 4918.52 13487.9 4892.63 13439.6 4879.68 13374.2 4879.68" transform="matrix(.1,0,0,-.1,0,1080)"/>
</svg>