<svg xmlns:xlink="http://www.w3.org/1999/xlink" xmlns="http://www.w3.org/2000/svg" viewBox="1023.7120359955006 704.1600000000001 382.27221597300337 185.76" version="1.1" style="max-height: 500px" width="382.27221597300337" height="185.76">

<path d="M11483.9 2315H11799.76V2387.5H11483.9ZM11799.7 2460.01C11839.6 2460.01 11872.2 2427.38 11872.2 2387.5V2315C11872.2 2275.12 11839.6 2242.49 11799.7 2242.49H11483.9C11444 2242.49 11411.4 2275.12 11411.4 2315V2387.5C11411.4 2427.38 11444 2460.01 11483.9 2460.01H11727.2V2532.51H11447.6V2605.01H11727.2C11767.1 2605.01 11799.7 2572.39 11799.7 2532.51" transform="matrix(.1,0,0,-.1,0,1080)"/>
<path d="M12481.2 2460.01H12797.06V2532.51H12481.2ZM12797 2605.01C12836.9 2605.01 12869.5 2572.39 12869.5 2532.51V2460.01C12869.5 2420.13 12836.9 2387.5 12797 2387.5H12481.2V2315H12797V2242.49H12481.2C12441.3 2242.49 12408.7 2275.12 12408.7 2315V2532.51C12408.7 2572.39 12441.3 2605.01 12481.2 2605.01" transform="matrix(.1,0,0,-.1,0,1080)"/>
<path d="M11982.5 2460.01H12298.359V2532.51H11982.5ZM12298.4 2605.01C12338.3 2605.01 12370.9 2572.39 12370.9 2532.51V2460.01C12370.9 2420.13 12338.3 2387.5 12298.4 2387.5H11982.5V2315H12298.4V2242.49H11982.5C11942.6 2242.49 11910 2275.12 11910 2315V2532.51C11910 2572.39 11942.6 2605.01 11982.5 2605.01" transform="matrix(.1,0,0,-.1,0,1080)"/>
<path fill="#ed5507" d="M12488.9 2932.53H12182.6C12148.8 2932.53 12117.5 2950.45 12100.4 2979.62L12077.7 3018.21C12052 3061.97 12005.1 3088.85 11954.3 3088.85H11792C11778.9 3088.85 11768.2 3099.52 11768.2 3112.69V3226.08C11768.2 3239.25 11778.9 3249.93 11792 3249.93H11889.6C11923.4 3249.93 11954.7 3232.01 11971.8 3202.84L11994.5 3164.24C12020.2 3120.49 12067.1 3093.61 12117.8 3093.61H12488.9C12502 3093.61 12512.7 3082.94 12512.7 3069.77V2956.37C12512.7 2943.21 12502 2932.53 12488.9 2932.53M12513.3 3250.46H12512.7 12027.1C11976 3250.46 11928.7 3277.73 11903.2 3321.99L11880.3 3361.63C11863.3 3391.12 11831.8 3409.3 11797.7 3409.32L11768.2 3409.42H11767.6 11632.5C11619.4 3409.42 11608.7 3398.75 11608.7 3385.58V2955.84C11608.7 2942.68 11619.4 2932 11632.5 2932H11767.6 11768.2 12072.6C12106.7 2932 12138.2 2913.78 12155.2 2884.21L12178 2844.72C12203.5 2800.37 12250.8 2773.04 12302 2773.04H12512.7 12513.3 12529.1C12608.2 2773.04 12672.2 2837.09 12672.2 2916.1V3091.49C12672.2 3179.29 12601 3250.46 12513.3 3250.46" transform="matrix(.1,0,0,-.1,0,1080)"/>
</svg>